2, 48, Note_on_c, 0, 70, 0
2, 63, Note_on_c, 0, 83, 0
2, 99, Note_on_c, 0, 57, 100
2, 99, Note_on_c, 0, 70, 100
2, 132, Note_on_c, 0, 72, 100
2, 140, Note_on_c, 0, 64, 0
2, 148, Note_on_c, 0, 45, 100
2, 148, Note_on_c, 0, 57, 0
2, 148, Note_on_c, 0, 70, 0
2, 151, Note_on_c, 0, 67, 0
2, 173, Note_on_c, 0, 62, 0
2, 189, Note_on_c, 0, 83, 0
2, 197, Note_on_c, 0, 57, 0
2, 233, Note_on_c, 0, 63, 100
2, 236, Note_on_c, 0, 56, 0
2, 237, Note_on_c, 0, 63, 0
2, 245, Note_on_c, 0, 61, 0
2, 257, Note_on_c, 0, 41, 0
2, 266, Note_on_c, 0, 41, 0
2, 279, Note_on_c, 0, 41, 0
2, 283, Note_on_c, 0, 72, 100
2, 287, Note_on_c, 0, 62, 100
2, 287, Note_on_c, 0, 72, 0
2, 287, Note_on_c, 0, 45, 0
2, 288, Note_on_c, 0, 63, 100
2, 290, Note_on_c, 0, 59, 0
2, 291, Note_on_c, 0, 83, 100
2, 310, Note_on_c, 0, 67, 100
2, 310, Note_on_c, 0, 62, 0
2, 310, Note_on_c, 0, 63, 0
2, 323, Note_on_c, 0, 39, 0
2, 329, Note_on_c, 0, 70, 0
2, 357, Note_on_c, 0, 84, 100
2, 358, Note_on_c, 0, 38, 0
2, 536, Note_on_c, 0, 58, 0
2, 581, Note_on_c, 0, 55, 100
2, 581, Note_on_c, 0, 83, 0
2, 581, Note_on_c, 0, 67, 0
2, 587, Note_on_c, 0, 61, 100
2, 590, Note_on_c, 0, 83, 100
2, 590, Note_on_c, 0, 84, 0
2, 590, Note_on_c, 0, 55, 0
2, 591, Note_on_c, 0, 69, 100
2, 594, Note_on_c, 0, 87, 0
2, 617, Note_on_c, 0, 58, 0
2, 621, Note_on_c, 0, 68, 100
2, 621, Note_on_c, 0, 61, 0
2, 621, Note_on_c, 0, 83, 0
2, 623, Note_on_c, 0, 57, 100
2, 625, Note_on_c, 0, 56, 0
2, 633, Note_on_c, 0, 83, 0
2, 656, Note_on_c, 0, 63, 0
2, 681, Note_on_c, 0, 38, 0
2, 715, Note_on_c, 0, 72, 0
2, 717, Note_on_c, 0, 68, 100
2, 717, Note_on_c, 0, 69, 0
2, 717, Note_on_c, 0, 68, 0
2, 754, Note_on_c, 0, 57, 0
2, 754, Note_on_c, 0, 93, 100
2, 757, Note_on_c, 0, 53, 0
2, 797, Note_on_c, 0, 55, 0
2, 801, Note_on_c, 0, 72, 0
2, 838, Note_on_c, 0, 83, 0
2, 838, Note_on_c, 0, 48, 0
2, 843, Note_on_c, 0, 79, 0
2, 856, Note_on_c, 0, 53, 0
2, 856, Note_on_c, 0, 68, 100
2, 857, Note_on_c, 0, 72, 100
2, 866, Note_on_c, 0, 70, 100
2, 866, Note_on_c, 0, 93, 0
2, 866, Note_on_c, 0, 68, 0
2, 866, Note_on_c, 0, 57, 0
2, 866, Note_on_c, 0, 68, 0
2, 870, Note_on_c, 0, 87, 0
2, 900, Note_on_c, 0, 74, 0
2, 913, Note_on_c, 0, 58, 0
2, 915, Note_on_c, 0, 58, 100
2, 932, Note_on_c, 0, 99, 0
2, 978, Note_on_c, 0, 62, 0
2, 1101, Note_on_c, 0, 66, 0
2, 1106, Note_on_c, 0, 67, 0
2, 1113, Note_on_c, 0, 50, 0
2, 1123, Note_on_c, 0, 61, 100
2, 1123, Note_on_c, 0, 72, 0
2, 1123, Note_on_c, 0, 70, 0
2, 1137, Note_on_c, 0, 62, 0
2, 1151, Note_on_c, 0, 21, 100
2, 1169, Note_on_c, 0, 53, 0
2, 1221, Note_on_c, 0, 79, 100
2, 1221, Note_on_c, 0, 58, 0
2, 1221, Note_on_c, 0, 61, 0
2, 1222, Note_on_c, 0, 83, 100
2, 1229, Note_on_c, 0, 28, 0
2, 1238, Note_on_c, 0, 67, 0
2, 1239, Note_on_c, 0, 83, 0
2, 1244, Note_on_c, 0, 55, 100
2, 1254, Note_on_c, 0, 58, 0
2, 1296, Note_on_c, 0, 62, 100
2, 1296, Note_on_c, 0, 21, 0
2, 1296, Note_on_c, 0, 79, 0
2, 1298, Note_on_c, 0, 87, 100
2, 1355, Note_on_c, 0, 53, 0
2, 1395, Note_on_c, 0, 61, 0
2, 1398, Note_on_c, 0, 60, 0
2, 1429, Note_on_c, 0, 57, 0
2, 1432, Note_on_c, 0, 58, 100
2, 1432, Note_on_c, 0, 55, 0
2, 1432, Note_on_c, 0, 62, 0
2, 1432, Note_on_c, 0, 87, 100
2, 1434, Note_on_c, 0, 83, 100
2, 1434, Note_on_c, 0, 87, 0
2, 1434, Note_on_c, 0, 58, 0
2, 1443, Note_on_c, 0, 58, 0
2, 1445, Note_on_c, 0, 59, 0
2, 1521, Note_on_c, 0, 41, 0
2, 1546, Note_on_c, 0, 53, 0
2, 1552, Note_on_c, 0, 54, 0
2, 1554, Note_on_c, 0, 77, 0
2, 1601, Note_on_c, 0, 87, 100
2, 1643, Note_on_c, 0, 84, 0
2, 1643, Note_on_c, 0, 87, 0
2, 1667, Note_on_c, 0, 74, 0
2, 1740, Note_on_c, 0, 83, 0
2, 1743, Note_on_c, 0, 67, 0
2, 1809, Note_on_c, 0, 59, 100
2, 1850, Note_on_c, 0, 83, 0
2, 1860, Note_on_c, 0, 70, 100
2, 1875, Note_on_c, 0, 70, 0
2, 1883, Note_on_c, 0, 27, 0
2, 1886, Note_on_c, 0, 51, 0
2, 1930, Note_on_c, 0, 64, 0
2, 1933, Note_on_c, 0, 41, 100
2, 1946, Note_on_c, 0, 44, 100
2, 2009, Note_on_c, 0, 55, 0
2, 2062, Note_on_c, 0, 58, 0
2, 2093, Note_on_c, 0, 72, 0
2, 2124, Note_on_c, 0, 54, 0
2, 2124, Note_on_c, 0, 77, 100
2, 2124, Note_on_c, 0, 59, 0
2, 2124, Note_on_c, 0, 41, 0
2, 2141, Note_on_c, 0, 83, 100
2, 2200, Note_on_c, 0, 75, 0
2, 2222, Note_on_c, 0, 58, 100
2, 2222, Note_on_c, 0, 44, 0
2, 2222, Note_on_c, 0, 77, 0
2, 2223, Note_on_c, 0, 54, 100
2, 2226, Note_on_c, 0, 62, 100
2, 2226, Note_on_c, 0, 83, 0
2, 2226, Note_on_c, 0, 58, 0
2, 2228, Note_on_c, 0, 57, 100
2, 2255, Note_on_c, 0, 47, 0
2, 2278, Note_on_c, 0, 63, 0
2, 2282, Note_on_c, 0, 83, 0
2, 2282, Note_on_c, 0, 87, 100
2, 2282, Note_on_c, 0, 54, 0
2, 2282, Note_on_c, 0, 62, 0
2, 2290, Note_on_c, 0, 74, 0
2, 2291, Note_on_c, 0, 79, 100
2, 2394, Note_on_c, 0, 77, 100
2, 2394, Note_on_c, 0, 57, 0
2, 2394, Note_on_c, 0, 87, 0
2, 2410, Note_on_c, 0, 62, 0
2, 2412, Note_on_c, 0, 62, 0
2, 2416, Note_on_c, 0, 80, 100
2, 2425, Note_on_c, 0, 61, 100
2, 2425, Note_on_c, 0, 79, 0
2, 2425, Note_on_c, 0, 77, 0
2, 2426, Note_on_c, 0, 72, 100
2, 2559, Note_on_c, 0, 58, 0
2, 2559, Note_on_c, 0, 57, 100
2, 2559, Note_on_c, 0, 80, 0
2, 2559, Note_on_c, 0, 61, 0
2, 2574, Note_on_c, 0, 55, 0
2, 2582, Note_on_c, 0, 60, 0
2, 2583, Note_on_c, 0, 58, 0
2, 2691, Note_on_c, 0, 87, 0
2, 2786, Note_on_c, 0, 61, 0
2, 2788, Note_on_c, 0, 78, 100
2, 2821, Note_on_c, 0, 41, 0
2, 2821, Note_on_c, 0, 57, 0
2, 2838, Note_on_c, 0, 41, 0
2, 2995, Note_on_c, 0, 75, 100
2, 2996, Note_on_c, 0, 76, 100
2, 2996, Note_on_c, 0, 72, 0
2, 2996, Note_on_c, 0, 78, 0
2, 3014, Note_on_c, 0, 41, 0
2, 3056, Note_on_c, 0, 63, 0
2, 3056, Note_on_c, 0, 34, 100
2, 3056, Note_on_c, 0, 55, 100
2, 3056, Note_on_c, 0, 75, 0
2, 3056, Note_on_c, 0, 76, 0
2, 3078, Note_on_c, 0, 57, 100
2, 3078, Note_on_c, 0, 67, 100
2, 3078, Note_on_c, 0, 34, 0
2, 3078, Note_on_c, 0, 55, 0
2, 3078, Note_on_c, 0, 56, 100
2, 3094, Note_on_c, 0, 87, 0
2, 3105, Note_on_c, 0, 58, 0
2, 3115, Note_on_c, 0, 62, 100
2, 3115, Note_on_c, 0, 57, 0
2, 3115, Note_on_c, 0, 67, 0
2, 3150, Note_on_c, 0, 83, 0
2, 3168, Note_on_c, 0, 87, 0
2, 3175, Note_on_c, 0, 61, 0
2, 3189, Note_on_c, 0, 53, 0
2, 3236, Note_on_c, 0, 57, 0
2, 3349, Note_on_c, 0, 64, 100
2, 3372, Note_on_c, 0, 87, 100
2, 3372, Note_on_c, 0, 56, 0
2, 3372, Note_on_c, 0, 62, 0
2, 3531, Note_on_c, 0, 63, 0
2, 3540, Note_on_c, 0, 51, 0
2, 3543, Note_on_c, 0, 53, 100
2, 3554, Note_on_c, 0, 99, 0
2, 3609, Note_on_c, 0, 87, 0
2, 3609, Note_on_c, 0, 53, 0
2, 3669, Note_on_c, 0, 58, 100
2, 3681, Note_on_c, 0, 69, 0
2, 3691, Note_on_c, 0, 58, 0
2, 3699, Note_on_c, 0, 67, 100
2, 3754, Note_on_c, 0, 72, 0
2, 3758, Note_on_c, 0, 38, 0
2, 3766, Note_on_c, 0, 58, 0
2, 3770, Note_on_c, 0, 64, 100
2, 3781, Note_on_c, 0, 67, 0
2, 3784, Note_on_c, 0, 53, 0
2, 3791, Note_on_c, 0, 53, 0
2, 3795, Note_on_c, 0, 67, 100
2, 3798, Note_on_c, 0, 72, 100
2, 3798, Note_on_c, 0, 64, 0
2, 3798, Note_on_c, 0, 67, 0
2, 3809, Note_on_c, 0, 58, 0
2, 3862, Note_on_c, 0, 87, 0
2, 3862, Note_on_c, 0, 72, 0
2, 3867, Note_on_c, 0, 59, 0
2, 3880, Note_on_c, 0, 58, 0
2, 3935, Note_on_c, 0, 64, 100
2, 3936, Note_on_c, 0, 57, 100
2, 3939, Note_on_c, 0, 60, 100
2, 3939, Note_on_c, 0, 50, 100
2, 3939, Note_on_c, 0, 64, 0
2, 3939, Note_on_c, 0, 57, 0
2, 3964, Note_on_c, 0, 72, 0
2, 3975, Note_on_c, 0, 62, 0
2, 3985, Note_on_c, 0, 83, 100
2, 4063, Note_on_c, 0, 62, 100
2, 4063, Note_on_c, 0, 60, 0
2, 4063, Note_on_c, 0, 50, 0
2, 4065, Note_on_c, 0, 48, 100
2, 4066, Note_on_c, 0, 84, 0
2, 4078, Note_on_c, 0, 83, 0
2, 4106, Note_on_c, 0, 87, 0
2, 4112, Note_on_c, 0, 60, 0
2, 4132, Note_on_c, 0, 55, 100
2, 4140, Note_on_c, 0, 57, 100
2, 4140, Note_on_c, 0, 62, 0
2, 4140, Note_on_c, 0, 48, 0
2, 4155, Note_on_c, 0, 58, 100
2, 4155, Note_on_c, 0, 87, 100
2, 4155, Note_on_c, 0, 55, 0
2, 4155, Note_on_c, 0, 57, 0
2, 4198, Note_on_c, 0, 61, 0
2, 4241, Note_on_c, 0, 62, 0
2, 4248, Note_on_c, 0, 80, 100
2, 4249, Note_on_c, 0, 66, 100
2, 4249, Note_on_c, 0, 58, 0
2, 4249, Note_on_c, 0, 87, 0
2, 4288, Note_on_c, 0, 52, 0
2, 4407, Note_on_c, 0, 41, 0
2, 4412, Note_on_c, 0, 90, 0
2, 4451, Note_on_c, 0, 27, 0
2, 4470, Note_on_c, 0, 53, 100
2, 4472, Note_on_c, 0, 61, 100
2, 4472, Note_on_c, 0, 80, 0
2, 4472, Note_on_c, 0, 66, 0
2, 4481, Note_on_c, 0, 62, 0
2, 4487, Note_on_c, 0, 51, 100
2, 4493, Note_on_c, 0, 41, 100
2, 4493, Note_on_c, 0, 53, 0
2, 4493, Note_on_c, 0, 61, 0
2, 4523, Note_on_c, 0, 87, 0
2, 4543, Note_on_c, 0, 87, 0
2, 4550, Note_on_c, 0, 53, 0
2, 4559, Note_on_c, 0, 57, 0
2, 4563, Note_on_c, 0, 62, 0
2, 4623, Note_on_c, 0, 47, 0
2, 4628, Note_on_c, 0, 61, 100
2, 4632, Note_on_c, 0, 62, 0
2, 4663, Note_on_c, 0, 100, 0
2, 4688, Note_on_c, 0, 59, 0
2, 4692, Note_on_c, 0, 72, 100
2, 4692, Note_on_c, 0, 51, 0
2, 4692, Note_on_c, 0, 41, 0
2, 4710, Note_on_c, 0, 58, 0
2, 4774, Note_on_c, 0, 77, 0
2, 4774, Note_on_c, 0, 61, 100
2, 4779, Note_on_c, 0, 63, 0
2, 4793, Note_on_c, 0, 82, 0
2, 4798, Note_on_c, 0, 55, 0
2, 4799, Note_on_c, 0, 50, 100
2, 4799, Note_on_c, 0, 61, 0
2, 4799, Note_on_c, 0, 72, 0
2, 4799, Note_on_c, 0, 54, 100
2, 4808, Note_on_c, 0, 55, 0
2, 4853, Note_on_c, 0, 77, 100
2, 4856, Note_on_c, 0, 68, 0
2, 4863, Note_on_c, 0, 55, 0
2, 4879, Note_on_c, 0, 63, 0
2, 4888, Note_on_c, 0, 87, 0
2, 4893, Note_on_c, 0, 74, 0
2, 4947, Note_on_c, 0, 58, 0
2, 4948, Note_on_c, 0, 38, 100
2, 4948, Note_on_c, 0, 50, 0
2, 4948, Note_on_c, 0, 54, 0
2, 5070, Note_on_c, 0, 61, 100
2, 5073, Note_on_c, 0, 58, 0
2, 5074, Note_on_c, 0, 49, 0
2, 5081, Note_on_c, 0, 87, 100
2, 5081, Note_on_c, 0, 77, 0
2, 5081, Note_on_c, 0, 38, 0
2, 5146, Note_on_c, 0, 83, 0
2, 5187, Note_on_c, 0, 80, 0
2, 5195, Note_on_c, 0, 62, 0
2, 5198, Note_on_c, 0, 67, 100
2, 5199, Note_on_c, 0, 66, 100
2, 5199, Note_on_c, 0, 61, 0
2, 5199, Note_on_c, 0, 87, 0
2, 5200, Note_on_c, 0, 62, 100
2, 5211, Note_on_c, 0, 61, 100
2, 5211, Note_on_c, 0, 67, 0
2, 5211, Note_on_c, 0, 66, 0
2, 5217, Note_on_c, 0, 56, 100
2, 5311, Note_on_c, 0, 63, 100
2, 5311, Note_on_c, 0, 62, 0
2, 5311, Note_on_c, 0, 61, 0
2, 5314, Note_on_c, 0, 63, 100
2, 5315, Note_on_c, 0, 28, 0
2, 5317, Note_on_c, 0, 66, 0
2, 5344, Note_on_c, 0, 80, 100
2, 5344, Note_on_c, 0, 56, 0
2, 5344, Note_on_c, 0, 63, 0
2, 5363, Note_on_c, 0, 63, 100
2, 5424, Note_on_c, 0, 72, 100
2, 5442, Note_on_c, 0, 56, 100
2, 5442, Note_on_c, 0, 80, 0
2, 5442, Note_on_c, 0, 63, 0
2, 5503, Note_on_c, 0, 60, 100
2, 5511, Note_on_c, 0, 41, 0
2, 5516, Note_on_c, 0, 64, 100
2, 5516, Note_on_c, 0, 72, 0
2, 5516, Note_on_c, 0, 56, 0
2, 5520, Note_on_c, 0, 58, 100
2, 5535, Note_on_c, 0, 55, 0
2, 5546, Note_on_c, 0, 87, 0
2, 5563, Note_on_c, 0, 34, 0
2, 5598, Note_on_c, 0, 58, 0
2, 5678, Note_on_c, 0, 50, 0
2, 5678, Note_on_c, 0, 69, 0
2, 5695, Note_on_c, 0, 53, 100
2, 5799, Note_on_c, 0, 77, 0
2, 5841, Note_on_c, 0, 53, 0
2, 5849, Note_on_c, 0, 89, 0
2, 5863, Note_on_c, 0, 58, 0
2, 5884, Note_on_c, 0, 70, 0
2, 5893, Note_on_c, 0, 58, 0
2, 5897, Note_on_c, 0, 53, 0
2, 5911, Note_on_c, 0, 84, 0
2, 5911, Note_on_c, 0, 64, 100
2, 5911, Note_on_c, 0, 44, 100
2, 5911, Note_on_c, 0, 60, 0
2, 5911, Note_on_c, 0, 64, 0
2, 5929, Note_on_c, 0, 56, 0
2, 6001, Note_on_c, 0, 67, 0
2, 6024, Note_on_c, 0, 53, 0
2, 6042, Note_on_c, 0, 52, 0
2, 6059, Note_on_c, 0, 38, 0
2, 6063, Note_on_c, 0, 58, 100
2, 6073, Note_on_c, 0, 58, 0
2, 6147, Note_on_c, 0, 61, 0
2, 6154, Note_on_c, 0, 64, 0
2, 6155, Note_on_c, 0, 57, 100
2, 6156, Note_on_c, 0, 57, 100
2, 6198, Note_on_c, 0, 38, 100
2, 6198, Note_on_c, 0, 44, 0
2, 6198, Note_on_c, 0, 57, 0
2, 6201, Note_on_c, 0, 87, 100
2, 6311, Note_on_c, 0, 54, 0
2, 6312, Note_on_c, 0, 56, 100
2, 6315, Note_on_c, 0, 63, 100
2, 6315, Note_on_c, 0, 38, 0
2, 6315, Note_on_c, 0, 87, 0
2, 6332, Note_on_c, 0, 62, 0
2, 6339, Note_on_c, 0, 51, 0
2, 6358, Note_on_c, 0, 55, 100
2, 6479, Note_on_c, 0, 70, 0
2, 6486, Note_on_c, 0, 72, 0
2, 6487, Note_on_c, 0, 58, 100
2, 6487, Note_on_c, 0, 56, 0
2, 6487, Note_on_c, 0, 63, 0
2, 6487, Note_on_c, 0, 58, 100
2, 6490, Note_on_c, 0, 61, 0
2, 6593, Note_on_c, 0, 63, 100
2, 6593, Note_on_c, 0, 55, 0
2, 6593, Note_on_c, 0, 58, 0
2, 6593, Note_on_c, 0, 55, 100
2, 6600, Note_on_c, 0, 83, 0
2, 6632, Note_on_c, 0, 83, 100
2, 6650, Note_on_c, 0, 87, 0
2, 6659, Note_on_c, 0, 57, 0
2, 6663, Note_on_c, 0, 41, 100
2, 6663, Note_on_c, 0, 63, 0
2, 6663, Note_on_c, 0, 55, 0
2, 6676, Note_on_c, 0, 60, 0
2, 6685, Note_on_c, 0, 87, 100
2, 6709, Note_on_c, 0, 77, 0
2, 6753, Note_on_c, 0, 60, 0
2, 6769, Note_on_c, 0, 55, 0
2, 6774, Note_on_c, 0, 58, 0
2, 6777, Note_on_c, 0, 80, 0
2, 6828, Note_on_c, 0, 67, 0
2, 6852, Note_on_c, 0, 67, 0
2, 6871, Note_on_c, 0, 84, 0
2, 6889, Note_on_c, 0, 53, 0
2, 6917, Note_on_c, 0, 53, 100
2, 6917, Note_on_c, 0, 83, 0
2, 6917, Note_on_c, 0, 41, 0
2, 6919, Note_on_c, 0, 69, 100
2, 6922, Note_on_c, 0, 52, 100
2, 6922, Note_on_c, 0, 87, 0
2, 6922, Note_on_c, 0, 53, 0
2, 6923, Note_on_c, 0, 54, 0
2, 6928, Note_on_c, 0, 39, 100
2, 6929, Note_on_c, 0, 69, 100
2, 6929, Note_on_c, 0, 69, 0
2, 6929, Note_on_c, 0, 52, 0
2, 6930, Note_on_c, 0, 62, 100
2, 6932, Note_on_c, 0, 58, 0
2, 7113, Note_on_c, 0, 87, 0
2, 7121, Note_on_c, 0, 59, 0
2, 7133, Note_on_c, 0, 62, 100
2, 7136, Note_on_c, 0, 77, 100
2, 7136, Note_on_c, 0, 39, 0
2, 7136, Note_on_c, 0, 62, 0
2, 7138, Note_on_c, 0, 48, 100
2, 7202, Note_on_c, 0, 74, 0
2, 7210, Note_on_c, 0, 59, 100
2, 7210, Note_on_c, 0, 49, 100
2, 7210, Note_on_c, 0, 77, 0
2, 7210, Note_on_c, 0, 48, 0
2, 7215, Note_on_c, 0, 41, 0
2, 7216, Note_on_c, 0, 58, 100
2, 7217, Note_on_c, 0, 55, 100
2, 7217, Note_on_c, 0, 59, 0
2, 7217, Note_on_c, 0, 49, 0
2, 7261, Note_on_c, 0, 62, 0
2, 7267, Note_on_c, 0, 56, 0
2, 7327, Note_on_c, 0, 39, 0
2, 7390, Note_on_c, 0, 57, 0
2, 7434, Note_on_c, 0, 69, 0
2, 7458, Note_on_c, 0, 72, 0
2, 7461, Note_on_c, 0, 87, 0
2, 7484, Note_on_c, 0, 55, 100
2, 7501, Note_on_c, 0, 72, 0
2, 7502, Note_on_c, 0, 70, 0
2, 7508, Note_on_c, 0, 87, 100
2, 7508, Note_on_c, 0, 58, 0
2, 7508, Note_on_c, 0, 55, 0
2, 7511, Note_on_c, 0, 52, 100
2, 7516, Note_on_c, 0, 76, 0
2, 7536, Note_on_c, 0, 87, 0
2, 7572, Note_on_c, 0, 58, 100
2, 7574, Note_on_c, 0, 72, 100
2, 7574, Note_on_c, 0, 87, 100
2, 7574, Note_on_c, 0, 52, 0
2, 7574, Note_on_c, 0, 58, 0
2, 7588, Note_on_c, 0, 53, 100
2, 7588, Note_on_c, 0, 77, 100
2, 7588, Note_on_c, 0, 72, 0
2, 7588, Note_on_c, 0, 87, 0
2, 7588, Note_on_c, 0, 41, 100
2, 7596, Note_on_c, 0, 75, 0
2, 7597, Note_on_c, 0, 63, 100
2, 7597, Note_on_c, 0, 53, 0
2, 7597, Note_on_c, 0, 77, 0
2, 7630, Note_on_c, 0, 72, 0
2, 7634, Note_on_c, 0, 50, 0
2, 7709, Note_on_c, 0, 67, 100
2, 7711, Note_on_c, 0, 61, 100
2, 7711, Note_on_c, 0, 41, 0
2, 7711, Note_on_c, 0, 63, 0
2, 7804, Note_on_c, 0, 56, 0
2, 7805, Note_on_c, 0, 67, 0
2, 7895, Note_on_c, 0, 58, 100
2, 7914, Note_on_c, 0, 69, 100
2, 7916, Note_on_c, 0, 106, 0
2, 7916, Note_on_c, 0, 76, 100
2, 7916, Note_on_c, 0, 61, 0
2, 7916, Note_on_c, 0, 58, 0
2, 7917, Note_on_c, 0, 87, 100
2, 7935, Note_on_c, 0, 61, 0
2, 7940, Note_on_c, 0, 41, 0
2, 7944, Note_on_c, 0, 62, 100
2, 7944, Note_on_c, 0, 69, 0
2, 7944, Note_on_c, 0, 76, 0
2, 7952, Note_on_c, 0, 81, 0
2, 8012, Note_on_c, 0, 66, 100
2, 8014, Note_on_c, 0, 69, 100
2, 8014, Note_on_c, 0, 87, 0
2, 8014, Note_on_c, 0, 62, 0
2, 8025, Note_on_c, 0, 72, 0
2, 8036, Note_on_c, 0, 58, 100
2, 8114, Note_on_c, 0, 83, 100
2, 8114, Note_on_c, 0, 66, 0
2, 8114, Note_on_c, 0, 69, 0
2, 8115, Note_on_c, 0, 58, 100
2, 8115, Note_on_c, 0, 57, 100
2, 8115, Note_on_c, 0, 58, 0
2, 8115, Note_on_c, 0, 83, 0
2, 8133, Note_on_c, 0, 87, 100
2, 8159, Note_on_c, 0, 77, 100
2, 8159, Note_on_c, 0, 89, 100
2, 8159, Note_on_c, 0, 57, 0
2, 8159, Note_on_c, 0, 87, 0
2, 8167, Note_on_c, 0, 68, 100
2, 8317, Note_on_c, 0, 53, 100
2, 8317, Note_on_c, 0, 77, 0
2, 8317, Note_on_c, 0, 89, 0
2, 8335, Note_on_c, 0, 75, 100
2, 8352, Note_on_c, 0, 82, 0
2, 8353, Note_on_c, 0, 87, 0
2, 8353, Note_on_c, 0, 63, 0
2, 8369, Note_on_c, 0, 66, 100
2, 8369, Note_on_c, 0, 68, 0
2, 8369, Note_on_c, 0, 53, 0
2, 8369, Note_on_c, 0, 58, 100
2, 8372, Note_on_c, 0, 53, 100
2, 8372, Note_on_c, 0, 75, 0
2, 8372, Note_on_c, 0, 66, 0
2, 8374, Note_on_c, 0, 66, 100
2, 8432, Note_on_c, 0, 53, 0
2, 8432, Note_on_c, 0, 83, 100
2, 8462, Note_on_c, 0, 77, 0
2, 8500, Note_on_c, 0, 59, 0
2, 8500, Note_on_c, 0, 68, 0
2, 8540, Note_on_c, 0, 54, 0
2, 8550, Note_on_c, 0, 74, 0
2, 8588, Note_on_c, 0, 63, 0
2, 8588, Note_on_c, 0, 68, 0
2, 8591, Note_on_c, 0, 53, 0
2, 8639, Note_on_c, 0, 69, 0
2, 8669, Note_on_c, 0, 63, 0
2, 8678, Note_on_c, 0, 83, 0
2, 8685, Note_on_c, 0, 62, 0
2, 8733, Note_on_c, 0, 62, 0
2, 8741, Note_on_c, 0, 63, 0
2, 8744, Note_on_c, 0, 48, 100
2, 8757, Note_on_c, 0, 38, 0
2, 8763, Note_on_c, 0, 62, 100
2, 8763, Note_on_c, 0, 58, 0
2, 8763, Note_on_c, 0, 66, 0
2, 8764, Note_on_c, 0, 34, 0
2, 8778, Note_on_c, 0, 53, 0
2, 8781, Note_on_c, 0, 70, 100
2, 8803, Note_on_c, 0, 75, 0
2, 8849, Note_on_c, 0, 87, 100
2, 8849, Note_on_c, 0, 48, 0
2, 8849, Note_on_c, 0, 62, 0
2, 8863, Note_on_c, 0, 63, 0
2, 8871, Note_on_c, 0, 72, 0
2, 8910, Note_on_c, 0, 97, 100
2, 8932, Note_on_c, 0, 53, 100
2, 8932, Note_on_c, 0, 70, 0
2, 8932, Note_on_c, 0, 87, 0
2, 8960, Note_on_c, 0, 54, 100
2, 8961, Note_on_c, 0, 62, 100
2, 8961, Note_on_c, 0, 97, 0
2, 8961, Note_on_c, 0, 53, 0
2, 8981, Note_on_c, 0, 44, 0
2, 9021, Note_on_c, 0, 54, 0
2, 9024, Note_on_c, 0, 106, 100
2, 9026, Note_on_c, 0, 58, 100
2, 9030, Note_on_c, 0, 55, 0
2, 9032, Note_on_c, 0, 50, 100
2, 9032, Note_on_c, 0, 62, 0
2, 9032, Note_on_c, 0, 106, 0
2, 9036, Note_on_c, 0, 63, 100
2, 9053, Note_on_c, 0, 63, 0
2, 9056, Note_on_c, 0, 77, 100
2, 9058, Note_on_c, 0, 55, 100
2, 9058, Note_on_c, 0, 58, 0
2, 9058, Note_on_c, 0, 50, 0
2, 9060, Note_on_c, 0, 55, 0
2, 9060, Note_on_c, 0, 79, 100
2, 9063, Note_on_c, 0, 66, 100
2, 9065, Note_on_c, 0, 70, 100
2, 9065, Note_on_c, 0, 77, 0
2, 9065, Note_on_c, 0, 79, 0
2, 9066, Note_on_c, 0, 87, 100
2, 9066, Note_on_c, 0, 63, 100
2, 9066, Note_on_c, 0, 66, 0
2, 9066, Note_on_c, 0, 70, 0
2, 9067, Note_on_c, 0, 58, 100
2, 9135, Note_on_c, 0, 88, 100
2, 9135, Note_on_c, 0, 87, 0
2, 9135, Note_on_c, 0, 63, 0
2, 9143, Note_on_c, 0, 53, 100
2, 9145, Note_on_c, 0, 62, 100
2, 9145, Note_on_c, 0, 58, 0
2, 9145, Note_on_c, 0, 88, 0
2, 9145, Note_on_c, 0, 83, 100
2, 9164, Note_on_c, 0, 45, 100
2, 9164, Note_on_c, 0, 53, 0
2, 9164, Note_on_c, 0, 62, 0
2, 9352, Note_on_c, 0, 55, 0
2, 9387, Note_on_c, 0, 54, 0
2, 9441, Note_on_c, 0, 30, 100
2, 9459, Note_on_c, 0, 83, 0
2, 9469, Note_on_c, 0, 87, 100
2, 9507, Note_on_c, 0, 41, 0
2, 9518, Note_on_c, 0, 87, 100
2, 9518, Note_on_c, 0, 45, 0
2, 9518, Note_on_c, 0, 30, 0
2, 9519, Note_on_c, 0, 57, 100
2, 9521, Note_on_c, 0, 59, 100
2, 9521, Note_on_c, 0, 87, 0
2, 9521, Note_on_c, 0, 57, 0
2, 9522, Note_on_c, 0, 53, 100
2, 9645, Note_on_c, 0, 41, 100
2, 9646, Note_on_c, 0, 63, 0
2, 9667, Note_on_c, 0, 53, 100
2, 9667, Note_on_c, 0, 59, 0
2, 9667, Note_on_c, 0, 53, 0
2, 9708, Note_on_c, 0, 53, 100
2, 9729, Note_on_c, 0, 72, 0
2, 9765, Note_on_c, 0, 44, 100
2, 9775, Note_on_c, 0, 87, 100
2, 9775, Note_on_c, 0, 41, 0
2, 9775, Note_on_c, 0, 53, 0
2, 9783, Note_on_c, 0, 87, 0
2, 9785, Note_on_c, 0, 69, 0
2, 9797, Note_on_c, 0, 74, 0
2, 9807, Note_on_c, 0, 63, 0
2, 9811, Note_on_c, 0, 66, 0
2, 9841, Note_on_c, 0, 62, 0
2, 9888, Note_on_c, 0, 57, 100
2, 9890, Note_on_c, 0, 39, 100
2, 9891, Note_on_c, 0, 81, 100
2, 9891, Note_on_c, 0, 44, 0
2, 9891, Note_on_c, 0, 57, 0
2, 9923, Note_on_c, 0, 70, 100
2, 9954, Note_on_c, 0, 73, 0
2, 9971, Note_on_c, 0, 55, 0
2, 9972, Note_on_c, 0, 41, 0
2, 10003, Note_on_c, 0, 87, 100
2, 10003, Note_on_c, 0, 39, 0
2, 10003, Note_on_c, 0, 81, 0
2, 10003, Note_on_c, 0, 63, 100
2, 10044, Note_on_c, 0, 66, 100
2, 10044, Note_on_c, 0, 70, 0
2, 10044, Note_on_c, 0, 87, 0
2, 10050, Note_on_c, 0, 67, 0
2, 10066, Note_on_c, 0, 83, 0
2, 10135, Note_on_c, 0, 55, 0
2, 10325, Note_on_c, 0, 53, 0
2, 10330, Note_on_c, 0, 87, 100
2, 10351, Note_on_c, 0, 41, 0
2, 10377, Note_on_c, 0, 64, 100
2, 10377, Note_on_c, 0, 63, 0
2, 10377, Note_on_c, 0, 66, 0
2, 10450, Note_on_c, 0, 58, 0
2, 10463, Note_on_c, 0, 66, 0
2, 10511, Note_on_c, 0, 55, 0
2, 10549, Note_on_c, 0, 61, 100
2, 10617, Note_on_c, 0, 62, 100
2, 10617, Note_on_c, 0, 87, 0
2, 10617, Note_on_c, 0, 64, 0
2, 10618, Note_on_c, 0, 74, 100
2, 10621, Note_on_c, 0, 87, 0
2, 10645, Note_on_c, 0, 53, 0
2, 10664, Note_on_c, 0, 69, 100
2, 10664, Note_on_c, 0, 61, 0
2, 10664, Note_on_c, 0, 62, 0
2, 10668, Note_on_c, 0, 51, 0
2, 10687, Note_on_c, 0, 40, 0
2, 10695, Note_on_c, 0, 87, 100
2, 10696, Note_on_c, 0, 58, 100
2, 10696, Note_on_c, 0, 74, 0
2, 10696, Note_on_c, 0, 69, 0
2, 10719, Note_on_c, 0, 59, 0
2, 10811, Note_on_c, 0, 55, 0
2, 10825, Note_on_c, 0, 58, 0
2, 10827, Note_on_c, 0, 42, 100
2, 10889, Note_on_c, 0, 56, 0
2, 11057, Note_on_c, 0, 77, 100
2, 11058, Note_on_c, 0, 66, 0
2, 11067, Note_on_c, 0, 67, 0
2, 11075, Note_on_c, 0, 54, 100
2, 11075, Note_on_c, 0, 87, 0
2, 11075, Note_on_c, 0, 42, 0
2, 11077, Note_on_c, 0, 70, 0
2, 11090, Note_on_c, 0, 67, 100
2, 11113, Note_on_c, 0, 62, 100
2, 11113, Note_on_c, 0, 77, 0
2, 11113, Note_on_c, 0, 54, 0
2, 11125, Note_on_c, 0, 72, 100
2, 11128, Note_on_c, 0, 87, 100
2, 11128, Note_on_c, 0, 67, 0
2, 11128, Note_on_c, 0, 62, 0
2, 11132, Note_on_c, 0, 53, 100
2, 11182, Note_on_c, 0, 75, 0
2, 11274, Note_on_c, 0, 78, 100
2, 11274, Note_on_c, 0, 72, 0
2, 11274, Note_on_c, 0, 87, 0
2, 11322, Note_on_c, 0, 28, 100
2, 11325, Note_on_c, 0, 66, 100
2, 11325, Note_on_c, 0, 53, 0
2, 11325, Note_on_c, 0, 78, 0
2, 11325, Note_on_c, 0, 87, 100
2, 11344, Note_on_c, 0, 63, 0
2, 11398, Note_on_c, 0, 78, 0
2, 11398, Note_on_c, 0, 70, 0
2, 11419, Note_on_c, 0, 79, 100
2, 11419, Note_on_c, 0, 28, 0
2, 11419, Note_on_c, 0, 66, 0
2, 11478, Note_on_c, 0, 60, 100
2, 11482, Note_on_c, 0, 50, 0
2, 11531, Note_on_c, 0, 61, 0
2, 11579, Note_on_c, 0, 58, 0
2, 11612, Note_on_c, 0, 87, 0
2, 11625, Note_on_c, 0, 62, 0
2, 11628, Note_on_c, 0, 77, 0
2, 11648, Note_on_c, 0, 77, 0
2, 11711, Note_on_c, 0, 56, 0
2, 11713, Note_on_c, 0, 60, 0
2, 11773, Note_on_c, 0, 51, 0
2, 11835, Note_on_c, 0, 68, 100
2, 11860, Note_on_c, 0, 62, 0
2, 11869, Note_on_c, 0, 50, 100
2, 11898, Note_on_c, 0, 56, 0
2, 11910, Note_on_c, 0, 27, 100
2, 11910, Note_on_c, 0, 79, 0
2, 11910, Note_on_c, 0, 68, 0
2, 11910, Note_on_c, 0, 55, 100
2, 11914, Note_on_c, 0, 57, 100
2, 11914, Note_on_c, 0, 50, 0
2, 11914, Note_on_c, 0, 27, 0
2, 11917, Note_on_c, 0, 58, 0
2, 11919, Note_on_c, 0, 41, 100
2, 11923, End_track
